<svg viewBox="0 0 30 30" fill="none" xmlns="http://www.w3.org/2000/svg">
<path d="M21.6229 22.6143C21.9804 22.2568 21.9939 21.6633 21.6432 21.3126L15.6877 15.3572L21.4678 9.57713C21.8185 9.22642 21.8185 8.61941 21.461 8.26195C21.0968 7.89775 20.4966 7.90449 20.1459 8.25521L14.3658 14.0353L8.40367 8.0731C8.05295 7.72239 7.45943 7.73588 7.10198 8.09334C6.73777 8.45754 6.73103 9.04431 7.08174 9.39503L13.0439 15.3572L7.26384 21.1372C6.91313 21.4879 6.89964 22.095 7.26384 22.4592C7.6213 22.8166 8.23505 22.8099 8.58577 22.4592L14.3658 16.6791L20.3212 22.6345C20.6719 22.9852 21.2587 22.9785 21.6229 22.6143Z" fill="black"/>
</svg>
